<svg width="100" height="100" viewBox="0 0 100 100" xmlns="http://www.w3.org/2000/svg">
  <!-- Background circle -->
  <circle cx="50" cy="50" r="48" fill="#2a1a3a" stroke="#d4af37" stroke-width="2"/>
  
  <!-- Nanachi's face base -->
  <circle cx="50" cy="45" r="35" fill="#f5f5dc"/>
  
  <!-- Ears -->
  <ellipse cx="35" cy="25" rx="8" ry="15" fill="#f5f5dc" transform="rotate(-20 35 25)"/>
  <ellipse cx="65" cy="25" rx="8" ry="15" fill="#f5f5dc" transform="rotate(20 65 25)"/>
  
  <!-- Inner ears -->
  <ellipse cx="35" cy="25" rx="4" ry="8" fill="#ffb6c1" transform="rotate(-20 35 25)"/>
  <ellipse cx="65" cy="25" rx="4" ry="8" fill="#ffb6c1" transform="rotate(20 65 25)"/>
  
  <!-- Eyes -->
  <circle cx="42" cy="40" r="4" fill="#4a4a4a"/>
  <circle cx="58" cy="40" r="4" fill="#4a4a4a"/>
  <circle cx="43" cy="38" r="1.5" fill="#ffffff"/>
  <circle cx="59" cy="38" r="1.5" fill="#ffffff"/>
  
  <!-- Nose -->
  <ellipse cx="50" cy="48" rx="2" ry="1" fill="#ffb6c1"/>
  
  <!-- Mouth -->
  <path d="M 46 52 Q 50 56 54 52" stroke="#4a4a4a" stroke-width="2" fill="none"/>
  
  <!-- Whiskers -->
  <line x1="30" y1="45" x2="38" y2="47" stroke="#4a4a4a" stroke-width="1"/>
  <line x1="30" y1="50" x2="38" y2="50" stroke="#4a4a4a" stroke-width="1"/>
  <line x1="62" y1="47" x2="70" y2="45" stroke="#4a4a4a" stroke-width="1"/>
  <line x1="62" y1="50" x2="70" y2="50" stroke="#4a4a4a" stroke-width="1"/>
  
  <!-- Climbing gear hint -->
  <circle cx="75" cy="75" r="8" fill="#d4af37" stroke="#2a1a3a" stroke-width="1"/>
  <circle cx="75" cy="75" r="5" fill="none" stroke="#2a1a3a" stroke-width="1"/>
  
  <!-- Mystical aura -->
  <circle cx="50" cy="50" r="46" fill="none" stroke="#d4af37" stroke-width="1" opacity="0.3" stroke-dasharray="5,5">
    <animateTransform attributeName="transform" type="rotate" values="0 50 50;360 50 50" dur="10s" repeatCount="indefinite"/>
  </circle>
</svg>